<?xml version="1.0" encoding="UTF-8" standalone="no"?>
<svg
   viewBox="0 0 128 128"
   version="1.1"
   id="svg30"
   sodipodi:docname="qgpl_u1f407.svg"
   inkscape:version="1.2 (dc2aedaf03, 2022-05-15)"
   inkscape:export-filename="u1f407.png"
   inkscape:export-xdpi="96"
   inkscape:export-ydpi="96"
   xmlns:inkscape="http://www.inkscape.org/namespaces/inkscape"
   xmlns:sodipodi="http://sodipodi.sourceforge.net/DTD/sodipodi-0.dtd"
   xmlns="http://www.w3.org/2000/svg"
   xmlns:svg="http://www.w3.org/2000/svg">
  <sodipodi:namedview
     id="namedview32"
     pagecolor="#ffffff"
     bordercolor="#000000"
     borderopacity="0.25"
     inkscape:showpageshadow="2"
     inkscape:pageopacity="0.0"
     inkscape:pagecheckerboard="0"
     inkscape:deskcolor="#d1d1d1"
     showgrid="false"
     inkscape:zoom="4.8171649"
     inkscape:cx="59.371021"
     inkscape:cy="62.900067"
     inkscape:window-width="1920"
     inkscape:window-height="1027"
     inkscape:window-x="1912"
     inkscape:window-y="-8"
     inkscape:window-maximized="1"
     inkscape:current-layer="svg30"
     shape-rendering="crispEdges" />
  <defs
     id="defs2" />
  <path
     d="M93.84,81.17 C93.84,81.17 99.05,75.96 104.54,77.51 C110.03,79.06 113.55,81.87 113.97,87.65 C114.39,93.43 113.01,97.75 108.62,100.6 C102.99,104.26 96.23,101.87 96.23,101.87 L93.84,81.17 Z"
     fill="#ECF0F2"
     id="path4"
     style="fill:#ebebeb" />
  <path
     d="M60.19,42.6 C60.19,42.6 64.27,33.73 63.99,21.76 C63.71,9.79 61.03,3.46 55.03,3.69 C48.46,3.95 46.42,14.54 46.54,23.31 C46.68,34.01 50.58,42.08 50.58,42.08 L60.19,42.6 Z"
     fill="#A8A8A8"
     id="path6"
     style="fill:#9b9b9b" />
  <path
     d="M46.68,77.74 L36.64,78.58 C36.64,78.58 36.97,79.61 36.87,80.55 C36.78,81.49 36.54,83.83 36.54,83.83 L49.21,93.78 L73.33,80.36 L66.85,75.95 L46.68,77.74 Z"
     fill="#A8A8A8"
     id="path8" />
  <path
     d="M19.46,64.95 C18.97,64.95 18.54,64.59 18.47,64.09 C18.39,63.54 18.77,63.04 19.32,62.96 C19.43,62.94 22.03,62.58 24.87,62.48 C28.01,62.38 28.85,62.35 31.57,62.87 C32.11,62.97 32.47,63.5 32.36,64.04 C32.25,64.58 31.73,64.93 31.19,64.83 C28.7,64.35 27.98,64.37 24.94,64.47 C22.21,64.56 19.63,64.93 19.6,64.93 C19.55,64.94 19.51,64.95 19.46,64.95 Z"
     fill="#8E9395"
     id="path10"
     style="fill:#8b8b8b" />
  <path
     d="M18.43,71.89 C17.98,71.89 17.57,71.58 17.46,71.13 C17.33,70.59 17.66,70.05 18.2,69.92 C18.34,69.88 21.72,69.06 23.8,68.69 C25.87,68.31 29.61,67.86 29.77,67.84 C30.32,67.76 30.82,68.16 30.88,68.71 C30.95,69.26 30.56,69.76 30.01,69.82 C29.97,69.82 26.17,70.29 24.16,70.66 C22.15,71.03 18.71,71.86 18.68,71.87 C18.58,71.88 18.51,71.89 18.43,71.89 Z"
     fill="#8E9395"
     id="path12"
     style="fill:#8b8b8b" />
  <path
     d="M80.93,86.75 L45.55,109 C45.55,109 38.23,117.26 39.87,119 C40.74,119.92 44.16,120.74 47.14,120.08 C51.41,119.14 55.12,110.08 55.12,110.08 C55.12,110.08 53.24,122.94 56.15,123.5 C59.06,124.06 63.28,123.36 65.16,119.89 C67.04,116.42 67.69,112.19 69.38,110.41 C71.07,108.63 72.57,107.31 72.57,107.31 C72.57,107.31 73.51,108.44 74.07,109.19 C74.63,109.94 75.67,110.97 75.67,110.97 C75.67,110.97 71.28,113.69 69.76,115.85 C68.21,118.06 68.53,120.67 70.79,121.58 C74.07,122.89 88.25,117.17 88.25,117.17 L85.43,85.73 L80.93,86.75 Z"
     fill="#A8A8A8"
     id="path14"
     style="fill:#9b9b9b" />
  <path
     d="m 75.49,65.54 c 0,0 0.47,-3.38 -0.19,-6.48 -0.66,-3.1 -2.53,-6.66 -2.53,-6.66 0,0 6.95,-2.63 11.92,-7.13 5.52,-5 13.7,-14.36 14.45,-22.06 0.75,-7.7 -3.85,-14.64 -15.96,-7.32 -12.11,7.32 -20.92,25.44 -20.92,25.44 0,0 -9.57,-4.04 -17.36,0.19 -7.79,4.23 -11.92,15.11 -12.3,15.86 -0.38,0.75 -5.2,2.94 -5.82,9.57 -0.61,6.57 3.06,10.28 8.54,11.73 3.82,1.01 7.32,0.19 7.32,0.19 0,0 2.91,3.28 10.42,3.19 7.51,-0.09 13.7,-4.04 13.7,-4.04 0,0 -1.41,5.35 -8.17,8.26 -5.07,2.18 -11.26,1.88 -15.77,-0.09 -4.51,-1.97 -6.1,-4.22 -6.1,-4.22 0,0 -1.6,7.32 0,11.73 1.6,4.41 4.69,10.51 4.5,15.11 -0.19,4.6 -3.14,7.98 -1.69,9.85 0.81,1.05 4.15,1.93 6.76,-0.84 4.41,-4.69 4.24,-10 5.82,-10.23 3.28,-0.47 1.69,9.1 1.6,11.07 -0.09,1.97 -0.37,4.46 1.78,4.79 4.6,0.7 5.35,-1.03 7.32,-5.63 1.97,-4.6 1.74,-6.99 3.75,-9.76 1.64,-2.25 4.41,-3.75 4.41,-3.75 0,0 -0.52,-6.24 1.55,-9.53 2.06,-3.28 6.15,-5.87 9.15,-4.74 3,1.13 -3.61,1.92 -5.77,6.62 -1.58,3.44 -1.27,6.99 0.99,9.43 2.25,2.44 4.97,4.5 4.97,4.5 0,0 -10.76,3.88 -11.73,7.84 -0.7,2.86 0.47,4.18 7.04,3.52 6.57,-0.66 14.92,-2.91 18.21,-7.04 3.28,-4.13 7.48,-17.67 3.99,-27.55 C 96.55,79.38 94.54,75.86 87.31,70.7 80.09,65.54 75.49,65.54 75.49,65.54 Z"
     fill="#DFDFDF"
     id="path16"
     style="fill:#cbcbcb" />
  <path
     d="M69.86,43.96 C68.1,42.14 71.17,35.7 78.12,28.29 C85.07,20.88 89.85,18.53 92.2,20.22 C94.55,21.91 91.17,29.14 84.5,36.18 C78.98,42 72.77,46.96 69.86,43.96 Z"
     fill="#FFB0B1"
     id="path18"
     style="fill:#bb739f" />
  <path
     d="m 47.66,43.58 c 2.6,0.56 0.35,4.36 -1.83,8.02 -2.18,3.66 -3.8,5.56 -3.31,7.32 0.49,1.76 4.29,5.14 4.08,9.15 -0.21,4.01 -3.59,8.59 -9.92,8.09 -6.33,-0.5 -8.87,-5.35 -7.81,-10.63 0.84,-4.18 5.14,-6.12 6.26,-8.17 1.13,-2.04 2.99,-5.47 4.93,-8.31 2.75,-3.99 4.99,-6.03 7.6,-5.47 z"
     fill="#FFFFFF"
     id="path20"
     style="opacity:1;fill:#ebebeb" />
  <path
     d="M57.24,54.09 C59.153,54.278 60.496,56.547 60.239,59.157 C59.983,61.768 58.225,63.732 56.312,63.544 C54.399,63.357 53.057,61.088 53.313,58.477 C53.569,55.867 55.328,53.902 57.24,54.09 Z"
     fill="#2F3030"
     id="path22"
     style="fill:#2f2f2f" />
  <path
     d="M34.62,63.24 C34.62,63.24 37.76,60.66 38.98,61.93 C40.2,63.2 35.27,66.25 35.27,66.25 C35.27,66.25 34.8,68.55 36.21,68.78 C37.62,69.01 37.81,66.01 39.35,66.81 C40.9,67.61 39.49,71.6 36.77,71.64 C35.15,71.67 34.19,70.47 34.19,70.47 C34.19,70.47 33.76,71.36 32.31,71.22 C29.92,70.99 28.79,66.14 30.57,66.2 C31.98,66.25 31.13,68.5 32.45,68.5 C33.95,68.5 33.34,65.83 33.34,65.83 C33.34,65.83 30.06,62.4 31.51,61.18 C32.98,59.96 34.62,63.24 34.62,63.24 Z"
     fill="#2F3030"
     id="path24"
     style="fill:#2f2f2f" />
  <path
     d="M56.53,69.26 C56.41,69.26 56.3,69.24 56.18,69.2 C56.14,69.19 52.56,67.86 50.26,67.36 L44.82,66.19 C44.28,66.07 43.94,65.54 44.05,65 C44.16,64.46 44.7,64.12 45.24,64.23 L50.68,65.4 C53.12,65.93 56.72,67.26 56.87,67.32 C57.39,67.51 57.65,68.09 57.46,68.61 C57.32,69.01 56.94,69.26 56.53,69.26 Z"
     fill="#8E9395"
     id="path26"
     style="fill:#8b8b8b" />
  <path
     d="M55.4,75.93 C55.22,75.93 55.04,75.88 54.87,75.78 C54.84,75.76 51.76,73.85 48.91,72.29 C46.09,70.74 43.46,69.68 43.43,69.67 C42.92,69.46 42.67,68.88 42.88,68.37 C43.09,67.86 43.67,67.61 44.18,67.82 C44.29,67.86 46.94,68.94 49.87,70.55 C52.77,72.14 55.89,74.08 55.92,74.1 C56.39,74.39 56.53,75.01 56.24,75.48 C56.07,75.76 55.74,75.93 55.4,75.93 Z"
     fill="#8E9395"
     id="path28"
     style="fill:#8b8b8b" />
</svg>
